<svg xmlns="http://www.w3.org/2000/svg" width="90" height="130" viewBox="0 0 338.667 79.687" fill="#005aff" xmlns:v="https://vecta.io/nano"><path d="M114.194 1.145c-21.865 0-38.831 15.914-38.831 38.698 0 23.81 16.965 38.699 38.831 38.698s38.866-14.889 38.831-38.698c-.032-21.587-16.965-38.698-38.831-38.698zm0 10.654c15.258 0 27.627 11.484 27.627 28.044 0 16.867-12.369 28.045-27.627 28.045S86.567 56.709 86.567 39.843c0-16.561 12.369-28.044 27.627-28.044zm119.913-9.376v74.839h11.224V2.423zm-30.985 0l-41.655 37.419 41.655 37.42h16.702l-41.718-37.42 41.718-37.419zM296.843 0l-6.092 11.252 20.667 38.388h-41.447l-14.953 27.623h12.348l9.03-16.573h40.895l9.029 16.573h12.347zM0 0v77.263h11.455v-51.06L70.98 79.686V63.667z"/></svg>